<?xml version="1.0" ?><svg data-name="Livello 1" id="Livello_1" viewBox="0 0 128 128" xmlns="http://www.w3.org/2000/svg"><title/><defs>
        <linearGradient id="golden" gradientTransform="rotate(90)">
    <stop offset="0%"   stop-color="#ffe4a1" />
<stop offset="6%"   stop-color="#e2ad27" />
    <stop offset="100%" stop-color="#a77f18" />
  </linearGradient>
    </defs><path fill="url(#golden)" d="M64,0a64,64,0,1,0,64,64A64.07,64.07,0,0,0,64,0Zm0,122a58,58,0,1,1,58-58A58.07,58.07,0,0,1,64,122Z"/><path fill="url(#golden)" d="M90,61H67V38a3,3,0,0,0-6,0V61H38a3,3,0,0,0,0,6H61V90a3,3,0,0,0,6,0V67H90a3,3,0,0,0,0-6Z"/></svg>